  0
SECTION
  2
HEADER
  9
$ACADVER
  1
AC1014
  9
$HANDSEED
  5
FFFF
  9
$MEASUREMENT
 70
     1
  0
ENDSEC
  0
SECTION
  2
TABLES
  0
TABLE
  2
VPORT
  5
8
330
0
100
AcDbSymbolTable
 70
     4
  0
VPORT
  5
2E
330
8
100
AcDbSymbolTableRecord
100
AcDbViewportTableRecord
  2
*ACTIVE
 70
     0
 10
0.0
 20
0.0
 11
1.0
 21
1.0
 12
210.0
 22
148.5
 13
0.0
 23
0.0
 14
10.0
 24
10.0
 15
10.0
 25
10.0
 16
0.0
 26
0.0
 36
1.0
 17
0.0
 27
0.0
 37
0.0
 40
341.0
 41
1.24
 42
50.0
 43
0.0
 44
0.0
 50
0.0
 51
0.0
 71
     0
 72
   100
 73
     1
 74
     3
 75
     0
 76
     0
 77
     0
 78
     0
  0
ENDTAB
  0
TABLE
  2
LTYPE
  5
5
330
0
100
AcDbSymbolTable
 70
     1
  0
LTYPE
  5
14
330
5
100
AcDbSymbolTableRecord
100
AcDbLinetypeTableRecord
  2
BYBLOCK
 70
     0
  3

 72
    65
 73
     0
 40
0.0
  0
LTYPE
  5
15
330
5
100
AcDbSymbolTableRecord
100
AcDbLinetypeTableRecord
  2
BYLAYER
 70
     0
  3

 72
    65
 73
     0
 40
0.0
  0
LTYPE
  5
16
330
5
100
AcDbSymbolTableRecord
100
AcDbLinetypeTableRecord
  2
CONTINUOUS
 70
     0
  3
Solid line
 72
    65
 73
     0
 40
0.0
  0
ENDTAB
  0
TABLE
  2
LAYER
  5
2
100
AcDbSymbolTable
 70
2
  0
LAYER
  5
50
100
AcDbSymbolTableRecord
100
AcDbLayerTableRecord
  2
0
 70
0
  6
CONTINUOUS
  0
LAYER
  5
51
100
AcDbSymbolTableRecord
100
AcDbLayerTableRecord
  2
Layer_1
 70
0
  6
CONTINUOUS
  0
ENDTAB
  0
TABLE
  2
STYLE
  5
3
330
0
100
AcDbSymbolTable
 70
     1
  0
STYLE
  5
11
330
3
100
AcDbSymbolTableRecord
100
AcDbTextStyleTableRecord
  2
STANDARD
 70
     0
 40
0.0
 41
1.0
 50
0.0
 71
     0
 42
2.5
  3
txt
  4

  0
ENDTAB
  0
TABLE
  2
VIEW
  5
6
330
0
100
AcDbSymbolTable
 70
     0
  0
ENDTAB
  0
TABLE
  2
UCS
  5
7
330
0
100
AcDbSymbolTable
 70
     0
  0
ENDTAB
  0
TABLE
  2
APPID
  5
9
330
0
100
AcDbSymbolTable
 70
     2
  0
APPID
  5
12
330
9
100
AcDbSymbolTableRecord
100
AcDbRegAppTableRecord
  2
ACAD
 70
     0
  0
ENDTAB
  0
TABLE
  2
DIMSTYLE
  5
A
330
0
100
AcDbSymbolTable
 70
     1
  0
DIMSTYLE
105
27
330
A
100
AcDbSymbolTableRecord
100
AcDbDimStyleTableRecord
  2
ISO-25
 70
     0
  3

  4

  5

  6

  7

 40
1.0
 41
2.5
 42
0.625
 43
3.75
 44
1.25
 45
0.0
 46
0.0
 47
0.0
 48
0.0
140
2.5
141
2.5
142
0.0
143
0.03937007874016
144
1.0
145
0.0
146
1.0
147
0.625
 71
     0
 72
     0
 73
     0
 74
     0
 75
     0
 76
     0
 77
     1
 78
     8
170
     0
171
     3
172
     1
173
     0
174
     0
175
     0
176
     0
177
     0
178
     0
270
     2
271
     2
272
     2
273
     2
274
     3
340
11
275
     0
280
     0
281
     0
282
     0
283
     0
284
     8
285
     0
286
     0
287
     3
288
     0
  0
ENDTAB
  0
TABLE
  2
BLOCK_RECORD
  5
1
330
0
100
AcDbSymbolTable
 70
     1
  0
BLOCK_RECORD
  5
1F
330
1
100
AcDbSymbolTableRecord
100
AcDbBlockTableRecord
  2
*MODEL_SPACE
  0
BLOCK_RECORD
  5
1B
330
1
100
AcDbSymbolTableRecord
100
AcDbBlockTableRecord
  2
*PAPER_SPACE
  0
ENDTAB
  0
ENDSEC
  0
SECTION
  2
BLOCKS
  0
BLOCK
  5
20
330
1F
100
AcDbEntity
  8
0
100
AcDbBlockBegin
  2
*MODEL_SPACE
 70
     0
 10
0.0
 20
0.0
 30
0.0
  3
*MODEL_SPACE
  1

  0
ENDBLK
  5
21
330
1F
100
AcDbEntity
  8
0
100
AcDbBlockEnd
  0
BLOCK
  5
1C
330
1B
100
AcDbEntity
 67
     1
  8
0
100
AcDbBlockBegin
  2
*PAPER_SPACE
  1

  0
ENDBLK
  5
1D
330
1B
100
AcDbEntity
 67
     1
  8
0
100
AcDbBlockEnd
  0
ENDSEC
  0
SECTION
  2
ENTITIES
  0
SPLINE
  5
100
100
AcDbEntity
  8
Layer_1
 62
1
100
AcDbSpline
 70
8
 71
3
 72
8
 73
4
 74
0
 40
0
 40
0
 40
0
 40
0
 40
1
 40
1
 40
1
 40
1
 10
24.500003
 20
22.000000
 30
0.0
 10
24.500003
 20
21.336957
 30
0.0
 10
24.236611
 20
20.701070
 30
0.0
 10
23.767770
 20
20.232227
 30
0.0
  0
SPLINE
  5
101
100
AcDbEntity
  8
Layer_1
 62
1
100
AcDbSpline
 70
8
 71
3
 72
8
 73
4
 74
0
 40
0
 40
0
 40
0
 40
0
 40
1
 40
1
 40
1
 40
1
 10
23.767770
 20
20.232227
 30
0.0
 10
23.298929
 20
19.763384
 30
0.0
 10
22.663044
 20
19.499991
 30
0.0
 10
22.000003
 20
19.499991
 30
0.0
  0
SPLINE
  5
102
100
AcDbEntity
  8
Layer_1
 62
1
100
AcDbSpline
 70
8
 71
3
 72
8
 73
4
 74
0
 40
0
 40
0
 40
0
 40
0
 40
1
 40
1
 40
1
 40
1
 10
22.000003
 20
19.499991
 30
0.0
 10
21.336961
 20
19.499991
 30
0.0
 10
20.701077
 20
19.763384
 30
0.0
 10
20.232236
 20
20.232227
 30
0.0
  0
SPLINE
  5
103
100
AcDbEntity
  8
Layer_1
 62
1
100
AcDbSpline
 70
8
 71
3
 72
8
 73
4
 74
0
 40
0
 40
0
 40
0
 40
0
 40
1
 40
1
 40
1
 40
1
 10
20.232236
 20
20.232227
 30
0.0
 10
19.763395
 20
20.701070
 30
0.0
 10
19.500003
 20
21.336957
 30
0.0
 10
19.500003
 20
22.000000
 30
0.0
  0
SPLINE
  5
104
100
AcDbEntity
  8
Layer_1
 62
1
100
AcDbSpline
 70
8
 71
3
 72
8
 73
4
 74
0
 40
0
 40
0
 40
0
 40
0
 40
1
 40
1
 40
1
 40
1
 10
19.500003
 20
22.000000
 30
0.0
 10
19.500004
 20
23.380716
 30
0.0
 10
20.619292
 20
24.500006
 30
0.0
 10
22.000003
 20
24.500006
 30
0.0
  0
SPLINE
  5
105
100
AcDbEntity
  8
Layer_1
 62
1
100
AcDbSpline
 70
8
 71
3
 72
8
 73
4
 74
0
 40
0
 40
0
 40
0
 40
0
 40
1
 40
1
 40
1
 40
1
 10
22.000003
 20
24.500006
 30
0.0
 10
23.380714
 20
24.500006
 30
0.0
 10
24.500002
 20
23.380716
 30
0.0
 10
24.500003
 20
22.000000
 30
0.0
  0
LWPOLYLINE
  5
106
100
AcDbEntity
  8
Layer_1
 62
1
100
AcDbPolyline
 90
5
 70
1
 10
6.000002
 20
23.499994
 30
0.0
 10
18.000000
 20
23.499994
 30
0.0
 10
18.000000
 20
20.499978
 30
0.0
 10
6.000002
 20
20.499978
 30
0.0
 10
6.000002
 20
23.499994
 30
0.0
  0
LWPOLYLINE
  5
107
100
AcDbEntity
  8
Layer_1
 62
1
100
AcDbPolyline
 90
2
 70
1
 10
24.500003
 20
22.000000
 30
0.0
 10
24.500003
 20
22.000000
 30
0.0
  0
LWPOLYLINE
  5
108
100
AcDbEntity
  8
Layer_1
 62
1
100
AcDbPolyline
 90
5
 70
1
 10
31.299039
 20
35.106420
 30
0.0
 10
25.299040
 20
24.714117
 30
0.0
 10
22.700952
 20
26.214123
 30
0.0
 10
28.700951
 20
36.606427
 30
0.0
 10
31.299039
 20
35.106420
 30
0.0
  0
SPLINE
  5
109
100
AcDbEntity
  8
Layer_1
 62
1
100
AcDbSpline
 70
8
 71
3
 72
8
 73
4
 74
0
 40
0
 40
0
 40
0
 40
0
 40
1
 40
1
 40
1
 40
1
 10
42.000003
 20
22.000000
 30
0.0
 10
42.000000
 20
10.954307
 30
0.0
 10
33.045696
 20
2.000006
 30
0.0
 10
22.000003
 20
2.000006
 30
0.0
  0
SPLINE
  5
10a
100
AcDbEntity
  8
Layer_1
 62
1
100
AcDbSpline
 70
8
 71
3
 72
8
 73
4
 74
0
 40
0
 40
0
 40
0
 40
0
 40
1
 40
1
 40
1
 40
1
 10
22.000003
 20
2.000006
 30
0.0
 10
10.954310
 20
2.000006
 30
0.0
 10
2.000006
 20
10.954308
 30
0.0
 10
2.000003
 20
22.000000
 30
0.0
  0
SPLINE
  5
10b
100
AcDbEntity
  8
Layer_1
 62
1
100
AcDbSpline
 70
8
 71
3
 72
8
 73
4
 74
0
 40
0
 40
0
 40
0
 40
0
 40
1
 40
1
 40
1
 40
1
 10
2.000003
 20
22.000000
 30
0.0
 10
2.000003
 20
33.045695
 30
0.0
 10
10.954308
 20
42.000000
 30
0.0
 10
22.000003
 20
42.000000
 30
0.0
  0
SPLINE
  5
10c
100
AcDbEntity
  8
Layer_1
 62
1
100
AcDbSpline
 70
8
 71
3
 72
8
 73
4
 74
0
 40
0
 40
0
 40
0
 40
0
 40
1
 40
1
 40
1
 40
1
 10
22.000003
 20
42.000000
 30
0.0
 10
27.304333
 20
42.000000
 30
0.0
 10
32.391411
 20
39.892863
 30
0.0
 10
36.142139
 20
36.142136
 30
0.0
  0
SPLINE
  5
10d
100
AcDbEntity
  8
Layer_1
 62
1
100
AcDbSpline
 70
8
 71
3
 72
8
 73
4
 74
0
 40
0
 40
0
 40
0
 40
0
 40
1
 40
1
 40
1
 40
1
 10
36.142139
 20
36.142136
 30
0.0
 10
39.892866
 20
32.391408
 30
0.0
 10
42.000003
 20
27.304330
 30
0.0
 10
42.000003
 20
22.000000
 30
0.0
  0
LWPOLYLINE
  5
10e
100
AcDbEntity
  8
Layer_1
 62
1
100
AcDbPolyline
 90
5
 70
1
 10
28.700974
 20
7.393583
 30
0.0
 10
22.700974
 20
17.785887
 30
0.0
 10
25.299062
 20
19.285894
 30
0.0
 10
31.299062
 20
8.893590
 30
0.0
 10
28.700974
 20
7.393583
 30
0.0
  0
LWPOLYLINE
  5
10f
100
AcDbEntity
  8
Layer_1
 62
1
100
AcDbPolyline
 90
2
 70
1
 10
42.000003
 20
22.000000
 30
0.0
 10
42.000003
 20
22.000000
 30
0.0
  0
SPLINE
  5
110
100
AcDbEntity
  8
Layer_1
 62
1
100
AcDbSpline
 70
8
 71
3
 72
8
 73
4
 74
0
 40
0
 40
0
 40
0
 40
0
 40
1
 40
1
 40
1
 40
1
 10
66.999999
 20
21.999980
 30
0.0
 10
66.999998
 20
20.619265
 30
0.0
 10
65.880709
 20
19.499974
 30
0.0
 10
64.499998
 20
19.499974
 30
0.0
  0
SPLINE
  5
111
100
AcDbEntity
  8
Layer_1
 62
1
100
AcDbSpline
 70
8
 71
3
 72
8
 73
4
 74
0
 40
0
 40
0
 40
0
 40
0
 40
1
 40
1
 40
1
 40
1
 10
64.499998
 20
19.499974
 30
0.0
 10
63.119288
 20
19.499975
 30
0.0
 10
62.000001
 20
20.619266
 30
0.0
 10
62.000000
 20
21.999980
 30
0.0
  0
SPLINE
  5
112
100
AcDbEntity
  8
Layer_1
 62
1
100
AcDbSpline
 70
8
 71
3
 72
8
 73
4
 74
0
 40
0
 40
0
 40
0
 40
0
 40
1
 40
1
 40
1
 40
1
 10
62.000000
 20
21.999980
 30
0.0
 10
62.000000
 20
23.380696
 30
0.0
 10
63.119287
 20
24.499988
 30
0.0
 10
64.499998
 20
24.499990
 30
0.0
  0
SPLINE
  5
113
100
AcDbEntity
  8
Layer_1
 62
1
100
AcDbSpline
 70
8
 71
3
 72
8
 73
4
 74
0
 40
0
 40
0
 40
0
 40
0
 40
1
 40
1
 40
1
 40
1
 10
64.499998
 20
24.499990
 30
0.0
 10
65.163040
 20
24.499990
 30
0.0
 10
65.798925
 20
24.236597
 30
0.0
 10
66.267766
 20
23.767754
 30
0.0
  0
SPLINE
  5
114
100
AcDbEntity
  8
Layer_1
 62
1
100
AcDbSpline
 70
8
 71
3
 72
8
 73
4
 74
0
 40
0
 40
0
 40
0
 40
0
 40
1
 40
1
 40
1
 40
1
 10
66.267766
 20
23.767754
 30
0.0
 10
66.736607
 20
23.298911
 30
0.0
 10
66.999999
 20
22.663024
 30
0.0
 10
66.999999
 20
21.999980
 30
0.0
  0
LWPOLYLINE
  5
115
100
AcDbEntity
  8
Layer_1
 62
1
100
AcDbPolyline
 90
5
 70
1
 10
48.500002
 20
23.499977
 30
0.0
 10
60.500003
 20
23.499977
 30
0.0
 10
60.500003
 20
20.499961
 30
0.0
 10
48.500002
 20
20.499961
 30
0.0
 10
48.500002
 20
23.499977
 30
0.0
  0
LWPOLYLINE
  5
116
100
AcDbEntity
  8
Layer_1
 62
1
100
AcDbPolyline
 90
2
 70
1
 10
66.999999
 20
21.999980
 30
0.0
 10
66.999999
 20
21.999980
 30
0.0
  0
LWPOLYLINE
  5
117
100
AcDbEntity
  8
Layer_1
 62
1
100
AcDbPolyline
 90
5
 70
1
 10
73.799027
 20
35.106412
 30
0.0
 10
67.799026
 20
24.714106
 30
0.0
 10
65.200938
 20
26.214113
 30
0.0
 10
71.200939
 20
36.606419
 30
0.0
 10
73.799027
 20
35.106412
 30
0.0
  0
LWPOLYLINE
  5
118
100
AcDbEntity
  8
Layer_1
 62
1
100
AcDbPolyline
 90
5
 70
1
 10
71.200963
 20
7.393605
 30
0.0
 10
65.200961
 20
17.785914
 30
0.0
 10
67.799051
 20
19.285922
 30
0.0
 10
73.799054
 20
8.893613
 30
0.0
 10
71.200963
 20
7.393605
 30
0.0
  0
LWPOLYLINE
  5
119
100
AcDbEntity
  8
Layer_1
 62
1
100
AcDbPolyline
 90
11
 70
1
 10
70.102775
 20
40.704391
 30
0.0
 10
61.902346
 20
26.500127
 30
0.0
 10
45.499833
 20
26.500127
 30
0.0
 10
45.499833
 20
17.499882
 30
0.0
 10
61.902346
 20
17.499882
 30
0.0
 10
70.102775
 20
3.295632
 30
0.0
 10
77.896960
 20
7.795750
 30
0.0
 10
69.696530
 20
22.000003
 30
0.0
 10
77.896960
 20
36.204270
 30
0.0
 10
70.102775
 20
40.704391
 30
0.0
 10
70.102775
 20
40.704391
 30
0.0
  0
LWPOLYLINE
  5
11a
100
AcDbEntity
  8
Layer_1
 62
1
100
AcDbPolyline
 90
43
 70
1
 10
2.500000
 20
50.000001
 30
0.0
 10
2.500000
 20
81.999939
 30
0.0
 10
4.000000
 20
81.999939
 30
0.0
 10
4.000000
 20
84.999939
 30
0.0
 10
15.999999
 20
84.999945
 30
0.0
 10
15.999999
 20
81.999945
 30
0.0
 10
18.300000
 20
81.999939
 30
0.0
 10
18.300000
 20
78.649942
 30
0.0
 10
10.750000
 20
78.649948
 30
0.0
 10
10.250001
 20
78.149949
 30
0.0
 10
10.250001
 20
74.649961
 30
0.0
 10
9.750002
 20
74.549961
 30
0.0
 10
8.850001
 20
74.549959
 30
0.0
 10
8.850001
 20
73.749957
 30
0.0
 10
9.750002
 20
73.749960
 30
0.0
 10
10.250001
 20
73.649960
 30
0.0
 10
10.250001
 20
69.999941
 30
0.0
 10
9.750002
 20
69.899935
 30
0.0
 10
8.850001
 20
69.899958
 30
0.0
 10
8.850001
 20
69.099957
 30
0.0
 10
9.750002
 20
69.099934
 30
0.0
 10
10.250001
 20
68.999940
 30
0.0
 10
10.250001
 20
65.499947
 30
0.0
 10
10.750000
 20
64.999934
 30
0.0
 10
18.300000
 20
64.999934
 30
0.0
 10
18.300000
 20
62.549971
 30
0.0
 10
15.850000
 20
62.549971
 30
0.0
 10
15.349999
 20
62.049958
 30
0.0
 10
15.349999
 20
58.550008
 30
0.0
 10
14.850000
 20
58.449988
 30
0.0
 10
13.950001
 20
58.449988
 30
0.0
 10
13.950001
 20
57.650001
 30
0.0
 10
14.850000
 20
57.650001
 30
0.0
 10
15.349999
 20
57.549981
 30
0.0
 10
15.349999
 20
54.050002
 30
0.0
 10
15.850000
 20
53.549989
 30
0.0
 10
18.300000
 20
53.550018
 30
0.0
 10
18.300000
 20
50.000001
 30
0.0
 10
15.999999
 20
50.000001
 30
0.0
 10
15.999999
 20
47.000007
 30
0.0
 10
4.000000
 20
47.000007
 30
0.0
 10
4.000000
 20
50.000001
 30
0.0
 10
2.500000
 20
50.000001
 30
0.0
  0
LWPOLYLINE
  5
11b
100
AcDbEntity
  8
Layer_1
 62
1
100
AcDbPolyline
 90
43
 70
1
 10
22.500000
 20
50.000001
 30
0.0
 10
22.500000
 20
81.999939
 30
0.0
 10
24.000003
 20
81.999939
 30
0.0
 10
24.000003
 20
84.999939
 30
0.0
 10
36.000004
 20
84.999945
 30
0.0
 10
36.000004
 20
81.999945
 30
0.0
 10
38.300005
 20
81.999939
 30
0.0
 10
38.300005
 20
78.649942
 30
0.0
 10
30.749999
 20
78.649948
 30
0.0
 10
30.250000
 20
78.149949
 30
0.0
 10
30.250000
 20
74.649961
 30
0.0
 10
29.750001
 20
74.549961
 30
0.0
 10
28.850000
 20
74.549959
 30
0.0
 10
28.850000
 20
73.749957
 30
0.0
 10
29.750001
 20
73.749960
 30
0.0
 10
30.250000
 20
73.649960
 30
0.0
 10
30.250000
 20
69.999941
 30
0.0
 10
29.750001
 20
69.899935
 30
0.0
 10
28.850000
 20
69.899958
 30
0.0
 10
28.850000
 20
69.099957
 30
0.0
 10
29.750001
 20
69.099934
 30
0.0
 10
30.250000
 20
68.999940
 30
0.0
 10
30.250000
 20
65.499947
 30
0.0
 10
30.749999
 20
64.999934
 30
0.0
 10
38.300002
 20
64.999934
 30
0.0
 10
38.300002
 20
62.549971
 30
0.0
 10
35.850003
 20
62.549971
 30
0.0
 10
35.350004
 20
62.049958
 30
0.0
 10
35.350004
 20
58.550008
 30
0.0
 10
34.850002
 20
58.449988
 30
0.0
 10
33.950001
 20
58.449988
 30
0.0
 10
33.950001
 20
57.650001
 30
0.0
 10
34.850002
 20
57.650001
 30
0.0
 10
35.350004
 20
57.549981
 30
0.0
 10
35.350004
 20
54.050002
 30
0.0
 10
35.850003
 20
53.549989
 30
0.0
 10
38.300002
 20
53.550018
 30
0.0
 10
38.300002
 20
50.000001
 30
0.0
 10
36.000004
 20
50.000001
 30
0.0
 10
36.000004
 20
47.000007
 30
0.0
 10
24.000003
 20
47.000007
 30
0.0
 10
24.000003
 20
50.000001
 30
0.0
 10
22.500000
 20
50.000001
 30
0.0
  0
LWPOLYLINE
  5
11c
100
AcDbEntity
  8
Layer_1
 62
1
100
AcDbPolyline
 90
43
 70
1
 10
42.500005
 20
50.000001
 30
0.0
 10
42.500005
 20
81.999939
 30
0.0
 10
44.000005
 20
81.999939
 30
0.0
 10
44.000005
 20
84.999939
 30
0.0
 10
56.000004
 20
84.999945
 30
0.0
 10
56.000004
 20
81.999945
 30
0.0
 10
58.300005
 20
81.999939
 30
0.0
 10
58.300005
 20
78.649942
 30
0.0
 10
50.750004
 20
78.649948
 30
0.0
 10
50.250005
 20
78.149949
 30
0.0
 10
50.250005
 20
74.649961
 30
0.0
 10
49.750004
 20
74.549961
 30
0.0
 10
48.850005
 20
74.549959
 30
0.0
 10
48.850005
 20
73.749957
 30
0.0
 10
49.750004
 20
73.749960
 30
0.0
 10
50.250005
 20
73.649960
 30
0.0
 10
50.250005
 20
69.999941
 30
0.0
 10
49.750004
 20
69.899935
 30
0.0
 10
48.850005
 20
69.899958
 30
0.0
 10
48.850005
 20
69.099957
 30
0.0
 10
49.750004
 20
69.099934
 30
0.0
 10
50.250005
 20
68.999940
 30
0.0
 10
50.250005
 20
65.499947
 30
0.0
 10
50.750004
 20
64.999934
 30
0.0
 10
58.300005
 20
64.999934
 30
0.0
 10
58.300005
 20
62.549971
 30
0.0
 10
55.850005
 20
62.549971
 30
0.0
 10
55.350004
 20
62.049958
 30
0.0
 10
55.350004
 20
58.550008
 30
0.0
 10
54.850005
 20
58.449988
 30
0.0
 10
53.950004
 20
58.449988
 30
0.0
 10
53.950004
 20
57.650001
 30
0.0
 10
54.850005
 20
57.650001
 30
0.0
 10
55.350004
 20
57.549981
 30
0.0
 10
55.350004
 20
54.050002
 30
0.0
 10
55.850005
 20
53.549989
 30
0.0
 10
58.300005
 20
53.550018
 30
0.0
 10
58.300005
 20
50.000001
 30
0.0
 10
56.000004
 20
50.000001
 30
0.0
 10
56.000004
 20
47.000007
 30
0.0
 10
44.000005
 20
47.000007
 30
0.0
 10
44.000005
 20
50.000001
 30
0.0
 10
42.500005
 20
50.000001
 30
0.0
  0
ENDSEC
  0
SECTION
  2
OBJECTS
  0
DICTIONARY
  5
C
330
0
100
AcDbDictionary
  3
ACAD_GROUP
350
D
  3
ACAD_MLINESTYLE
350
17
  0
DICTIONARY
  5
D
330
C
100
AcDbDictionary
  0
DICTIONARY
  5
1A
330
C
100
AcDbDictionary
  0
DICTIONARY
  5
17
330
C
100
AcDbDictionary
  3
STANDARD
350
18
  0
DICTIONARY
  5
19
330
C
100
AcDbDictionary
  0
ENDSEC
  0
EOF
